<svg version="1.1" id="Layer_1" xmlns="http://www.w3.org/2000/svg" xmlns:xlink="http://www.w3.org/1999/xlink" x="0px" y="0px"
	 width="100%" viewBox="0 0 752 544" enable-background="new 0 0 752 544" xml:space="preserve">
<path fill="#1A4FA2" opacity="1.000000" stroke="none" 
	d="
M353.539093,243.577637 
	C359.491486,252.907806 361.161835,262.719574 358.818848,273.081177 
	C358.016022,276.631622 358.732666,278.614838 362.013702,280.300354 
	C370.309967,284.562256 378.496033,289.046967 386.622009,293.627350 
	C389.286316,295.129150 391.085876,295.303314 393.521210,292.911316 
	C407.695557,278.989014 433.499023,278.661255 447.708710,286.664917 
	C466.053314,296.997589 475.462585,315.980194 471.850128,335.740387 
	C468.118408,356.153046 452.767487,371.344086 432.570557,374.494110 
	C415.786072,377.111938 401.722656,371.450439 389.937164,359.773834 
	C387.318878,357.179779 385.281586,356.457336 381.747620,357.678040 
	C371.680481,361.155396 361.492950,364.296143 351.293427,367.372589 
	C347.210785,368.604034 345.053497,370.721588 344.265717,375.201569 
	C340.209839,398.266022 318.601501,415.604889 294.959808,415.143890 
	C271.013702,414.676971 250.573486,396.329468 246.655685,373.064301 
	C242.149155,346.303040 263.459778,322.208923 288.043335,318.586487 
	C296.502838,317.339935 299.738617,313.383881 299.743225,304.883698 
	C299.744690,302.221588 297.770477,301.671967 296.171112,300.612457 
	C282.577179,291.606873 274.933624,279.523926 275.588562,262.649689 
	C276.288757,244.609406 290.923035,227.711685 308.955872,224.755005 
	C327.604675,221.697342 342.237732,228.245300 353.539093,243.577637 
M339.246704,343.345520 
	C340.226776,345.269684 341.265320,347.166870 342.169006,349.126251 
	C342.935150,350.787415 344.087372,351.286896 345.790375,350.737274 
	C356.503967,347.279358 367.219879,343.828705 378.278503,340.264984 
	C375.861328,329.858368 376.071838,320.071411 380.296844,310.475494 
	C370.042480,304.975159 360.244202,299.735077 350.464233,294.461029 
	C348.390411,293.342682 347.124420,294.515564 345.661804,295.759186 
	C337.950165,302.316040 329.155548,306.425537 318.889893,306.220520 
	C314.643402,306.135681 312.807861,307.824463 312.267242,311.712891 
	C312.108337,312.855682 311.789795,313.999817 311.377197,315.079407 
	C310.019745,318.631226 310.782196,320.563873 314.733490,322.052063 
	C325.177948,325.985748 333.178040,333.086456 339.246704,343.345520 
z"/>
<path fill="#1A4FA2" opacity="1.000000" stroke="none" 
	d="
M88.921509,277.076477 
	C119.399345,309.030151 155.090210,333.323761 193.448944,353.940033 
	C205.476471,360.404358 217.736511,366.439209 229.949234,372.552551 
	C231.926468,373.542297 232.899109,374.700073 233.413025,376.922241 
	C234.479340,381.533020 236.058441,386.025208 237.556366,390.996368 
	C233.708328,390.679901 231.240585,388.523315 228.487869,387.218048 
	C190.175247,369.050934 153.095367,348.713379 119.365959,322.840057 
	C95.862801,304.811096 73.962341,285.053101 59.449326,258.612030 
	C51.789158,244.656082 47.328030,229.994247 53.467693,214.127701 
	C59.200768,199.311874 70.997704,190.533417 84.700981,184.023499 
	C103.349586,175.164276 123.329170,171.886108 143.759827,170.688507 
	C187.298569,168.136398 230.056625,174.512192 272.840179,181.366135 
	C321.259155,189.122879 368.507690,201.553970 415.360382,215.669693 
	C447.440948,225.334885 478.568817,237.617798 509.326721,250.851624 
	C510.216766,251.234558 511.011475,251.839035 511.989075,252.422897 
	C510.396088,256.224792 507.112061,258.471039 504.868256,261.509430 
	C503.449280,263.430939 501.598236,262.266632 499.902313,261.514221 
	C475.832275,250.835098 451.204041,241.602066 426.167847,233.482483 
	C377.693329,217.761536 328.529480,204.803665 278.255859,196.100128 
	C251.361420,191.444092 224.359360,187.696518 197.178070,185.629959 
	C168.759949,183.469376 140.271988,183.007385 112.193054,189.339615 
	C99.805511,192.133209 87.739845,195.906830 77.524544,204.018188 
	C65.916092,213.235748 61.803543,225.814957 66.106033,240.033157 
	C70.408485,254.251251 79.235619,265.732117 88.921509,277.076477 
z"/>
<path fill="#1A4FA2" opacity="1.000000" stroke="none" 
	d="
M573.857422,178.905731 
	C592.338867,147.339203 607.820496,114.718956 621.753601,81.321060 
	C623.573853,76.957863 622.408813,75.433205 618.405762,74.196831 
	C612.123962,72.256645 605.951050,69.963562 598.303040,67.327354 
	C620.289185,53.264759 641.070007,39.973049 662.960938,25.971359 
	C666.757446,48.933167 670.367432,70.766777 673.948792,92.427071 
	C672.538757,94.013908 671.363953,93.092636 670.145325,92.634659 
	C664.848145,90.643921 659.470886,88.847511 654.256836,86.660698 
	C650.604858,85.129013 648.747131,85.789902 647.122253,89.654961 
	C641.058350,104.079399 634.949707,118.502029 628.267029,132.646225 
	C604.814880,182.283875 575.532776,228.288437 540.783081,270.765411 
	C524.852661,290.238251 507.923676,308.852020 490.110229,326.639313 
	C488.968384,327.779480 488.061493,329.331635 486.178741,329.413788 
	C484.618835,328.593048 484.940674,327.114746 484.976746,325.854034 
	C485.179993,318.747925 484.031250,311.902039 481.048218,305.432617 
	C479.919403,302.984497 480.979156,301.412048 482.554932,299.686096 
	C500.860931,279.635193 519.012695,259.473694 535.160583,237.568130 
	C549.016479,218.771744 561.806824,199.312225 573.857422,178.905731 
z"/>
<path fill="#1A4FA2" opacity="1.000000" stroke="none" 
	d="
M102.880936,404.873047 
	C95.466339,415.802582 88.632057,426.626221 84.570374,438.963715 
	C77.449303,460.594116 86.385071,477.394043 108.259499,483.883545 
	C122.660316,488.155823 137.308914,487.823212 151.890091,486.223724 
	C189.546982,482.092926 224.744064,469.387512 259.188904,454.321381 
	C285.318787,442.892151 310.444214,429.363739 335.145386,415.266144 
	C344.595734,409.872559 353.512695,402.904236 362.823090,396.871948 
	C371.212067,391.436615 379.589447,385.983276 387.964233,380.526093 
	C389.506653,379.521027 390.913910,378.383820 392.953430,379.580200 
	C400.438843,383.971069 408.475708,386.881226 417.809570,387.880798 
	C415.653229,391.076965 412.870544,392.318848 410.497437,393.921417 
	C381.628693,413.416229 352.203522,431.993286 320.926361,447.457184 
	C274.003479,470.656494 225.438828,489.244507 173.611588,497.976624 
	C151.415558,501.716309 128.962708,503.542389 106.752365,497.349609 
	C94.306549,493.879456 82.917175,488.439484 75.295143,477.475372 
	C64.937538,462.576111 66.323601,446.662659 72.371269,430.702698 
	C79.433144,412.066101 90.897408,396.104187 103.618454,381.009857 
	C112.856415,370.048401 122.873489,359.813324 133.271790,349.931183 
	C136.074051,347.268005 138.008820,347.051697 140.838501,349.515686 
	C142.943283,351.348450 145.455353,352.713470 148.763428,354.946686 
	C131.876358,370.414551 116.309555,386.454437 102.880936,404.873047 
z"/>
<path fill="#1A4FA2" opacity="1.000000" stroke="none" 
	d="
M462.222656,452.618591 
	C491.638184,458.849670 520.866272,463.387604 550.425537,465.993713 
	C564.541260,467.238220 578.674500,468.128876 592.799805,468.343231 
	C616.144104,468.697449 639.459656,467.749359 661.971863,460.425323 
	C667.839966,458.516174 673.524902,456.196503 678.821472,452.927582 
	C695.755859,442.476105 700.323425,429.761810 694.005371,410.823364 
	C688.526184,394.399384 677.843689,381.413635 666.294250,369.114960 
	C642.727356,344.019226 615.008057,324.146759 585.849182,306.148560 
	C573.364990,298.442688 560.472717,291.463470 547.563110,284.512665 
	C546.414368,283.894165 545.116455,283.461121 544.302551,281.915924 
	C546.121338,278.583801 549.325989,276.347443 551.689575,273.422333 
	C553.073486,271.709656 554.707397,272.731110 556.191589,273.528168 
	C599.949219,297.028717 641.906677,323.061951 676.402710,359.495911 
	C689.201599,373.013824 700.516785,387.632385 706.852844,405.393677 
	C716.366272,432.061768 707.508240,454.335388 682.166077,467.352051 
	C665.973022,475.669403 648.521240,479.697815 630.448975,481.396179 
	C618.840088,482.487152 607.232910,483.186829 595.570557,483.133179 
	C567.392822,483.003571 539.481201,479.788574 511.621460,475.986206 
	C468.345886,470.079773 425.954285,460.077972 383.989258,448.164581 
	C374.940125,445.595673 366.017578,442.580963 355.590485,439.319183 
	C361.590759,435.552185 366.249298,432.558868 370.988525,429.699310 
	C372.214386,428.959717 373.600403,429.661194 374.859161,430.064758 
	C403.413055,439.219940 432.479340,446.392090 462.222656,452.618591 
z"/>
<path fill="#1A4FA2" opacity="1.000000" stroke="none" 
	d="
M682.861694,126.929932 
	C692.693542,130.037155 701.545471,134.196533 709.205078,140.586182 
	C725.829773,154.454300 729.250671,172.864059 722.229614,194.548584 
	C716.866394,211.112869 707.010742,225.208374 696.106323,238.532547 
	C676.607544,262.358185 653.480896,282.449127 630.089111,302.272095 
	C626.938843,304.941711 624.603577,305.317322 621.575073,302.602692 
	C619.254761,300.522858 616.056519,299.549805 613.892944,296.726593 
	C616.401917,293.050842 620.223816,290.912842 623.517334,288.285797 
	C644.647034,271.431702 664.819580,253.523453 682.390015,232.947937 
	C694.302856,218.997665 705.350952,204.332947 709.982727,186.006470 
	C714.299683,168.925781 708.799805,155.451401 693.701233,146.491089 
	C679.932800,138.320099 664.740784,136.141296 649.049683,136.073120 
	C645.473145,136.057602 641.783569,136.648117 638.060486,135.136475 
	C638.450256,130.204727 641.262939,126.619072 643.460205,122.827042 
	C644.428711,121.155571 646.467834,121.734505 648.084595,121.718445 
	C659.815247,121.601921 671.266296,123.416405 682.861694,126.929932 
z"/>
<path fill="#1A4FA2" opacity="1.000000" stroke="none" 
	d="
M588.775696,318.479004 
	C592.217834,321.044373 596.231384,322.205963 599.191345,325.782654 
	C595.902893,329.442413 591.716858,331.890808 587.849365,334.586700 
	C552.038330,359.549377 515.089783,382.653076 476.448090,403.041168 
	C458.034363,412.756592 439.281891,421.733398 420.488953,430.659302 
	C417.244720,432.200165 414.400421,432.615906 410.987396,431.490051 
	C406.164185,429.898987 401.000000,429.388489 396.271667,427.242493 
	C396.748169,424.667542 398.903809,424.535004 400.404724,423.855988 
	C439.718811,406.071045 478.126526,386.542877 515.145020,364.338257 
	C538.568115,350.288483 561.482849,335.455292 583.709900,319.571472 
	C585.147949,318.543793 586.379578,316.796387 588.775696,318.479004 
z"/>
<path fill="#1A4FA2" opacity="1.000000" stroke="none" 
	d="
M397.345520,200.376221 
	C389.559692,199.907578 382.684875,197.356522 375.635651,194.469925 
	C444.621216,163.949051 514.803162,137.824646 589.640869,125.366089 
	C588.981628,135.151413 584.114990,140.747879 575.406189,142.406097 
	C537.702026,149.585159 501.179382,160.926636 465.072540,173.731812 
	C442.313019,181.803375 419.830383,190.578354 397.345520,200.376221 
z"/>
<path fill="#1A4FA2" opacity="1.000000" stroke="none" 
	d="
M181.463715,328.512024 
	C173.956116,334.177429 170.926300,333.665253 161.873474,325.009460 
	C193.313934,299.605804 226.449463,276.917206 262.160370,255.211700 
	C261.583954,261.332672 261.072754,265.900696 261.793945,270.471649 
	C262.133850,272.625854 259.972504,273.417664 258.451813,274.389679 
	C234.760864,289.533051 211.510208,305.312408 189.161346,322.392059 
	C186.652664,324.309326 184.220551,326.326721 181.463715,328.512024 
z"/>
</svg>